HIERARCHY
ROOT Hips
{
  OFFSET -315.163 89.9075 301.004
  CHANNELS 6 Xposition Yposition Zposition Zrotation Xrotation Yrotation
  JOINT ToSpine
  {
    OFFSET -0.0105055 1.38907 -7.13956
    CHANNELS 3 Zrotation Xrotation Yrotation
    JOINT Spine
    {
      OFFSET 0.0105055 10 1
      CHANNELS 3 Zrotation Xrotation Yrotation
      JOINT Spine1
      {
        OFFSET 0 12 1.60637
        CHANNELS 3 Zrotation Xrotation Yrotation
        JOINT Neck
        {
          OFFSET 0 27 2.26658
          CHANNELS 3 Zrotation Xrotation Yrotation
          JOINT Head
          {
            OFFSET 0 9 2.12705
            CHANNELS 3 Zrotation Xrotation Yrotation
            End Site
            {
              OFFSET 0 11 2
            }
          }
        }
        JOINT LeftShoulder
        {
          OFFSET 8 19.6109 2.86452
          CHANNELS 3 Zrotation Xrotation Yrotation
          JOINT LeftArm
          {
            OFFSET 12 1 0.681055
            CHANNELS 3 Zrotation Xrotation Yrotation
            JOINT LeftForeArm
            {
              OFFSET 19 0 -1.52608
              CHANNELS 3 Zrotation Xrotation Yrotation
              JOINT LeftHand
              {
                OFFSET 23 0 0
                CHANNELS 3 Zrotation Xrotation Yrotation
                End Site
                {
                  OFFSET 10 0 0
                }
              }
            }
          }
        }
        JOINT RightShoulder
        {
          OFFSET -8 19.6109 2.86452
          CHANNELS 3 Zrotation Xrotation Yrotation
          JOINT RightArm
          {
            OFFSET -12 1 0.681055
            CHANNELS 3 Zrotation Xrotation Yrotation
            JOINT RightForeArm
            {
              OFFSET -19 0 -1.52608
              CHANNELS 3 Zrotation Xrotation Yrotation
              JOINT RightHand
              {
                OFFSET -23 0 0
                CHANNELS 3 Zrotation Xrotation Yrotation
                End Site
                {
                  OFFSET -10 0 0
                }
              }
            }
          }
        }
      }
    }
  }
  JOINT LeftUpLeg
  {
    OFFSET 9 -7.17245 0
    CHANNELS 3 Zrotation Xrotation Yrotation
    JOINT LeftLeg
    {
      OFFSET 0 -44.1113 0
      CHANNELS 3 Zrotation Xrotation Yrotation
      JOINT LeftFoot
      {
        OFFSET 0 -36.1829 0
        CHANNELS 3 Zrotation Xrotation Yrotation
        JOINT LeftToeBase
        {
          OFFSET 0 -4.84184 13
          CHANNELS 3 Zrotation Xrotation Yrotation
          End Site
          {
            OFFSET 0 1 6
          }
        }
      }
    }
  }
  JOINT RightUpLeg
  {
    OFFSET -9 -7.17245 0
    CHANNELS 3 Zrotation Xrotation Yrotation
    JOINT RightLeg
    {
      OFFSET 0 -44.0551 0
      CHANNELS 3 Zrotation Xrotation Yrotation
      JOINT RightFoot
      {
        OFFSET 0 -36.1469 0
        CHANNELS 3 Zrotation Xrotation Yrotation
        JOINT RightToeBase
        {
          OFFSET 0 -4.92256 13
          CHANNELS 3 Zrotation Xrotation Yrotation
          End Site
          {
            OFFSET 0 1 6
          }
        }
      }
    }
  }
}
MOTION
Frames:	14
Frame Time:	0.0333333
-28.5727 95.437 21.8728 4.82946 2.16439 140.893 0 0 0 -5.04565 1.191 -3.03389 4.14266 5.04149 -4.26233 14.5518 2.73425 -3.52249 -4.08447 -2.68681 2.009 -26.9823 3.86526 -8.13358 -35.1315 16.8455 -31.408 -4.2246 -9.54146 -1.52988 -9.1083 0.345922 -4.34178 28.4976 6.06381 13.9124 53.5137 5.23023 -8.70213 3.19055 -7.29804 7.12371 4.30613 0.0968821 2.56725 4.59155 20.0743 8.31254 0.441098 29.2725 -22.9459 -8.48734 -17.9729 -1.33804 -3.908 17.5272 7.29708 5.22002 -18.7557 -3.81576 2.76252 17.44 -4.71471 -13.4694 8.50825 1.02525 3.70938 -13.6661 -5.15408 
-25.7586 96.0679 18.9986 5.34678 2.45363 139.371 0 0 0 -2.5242 1.74275 -2.20434 1.98185 4.45895 -3.19176 13.1428 2.66209 -2.94896 -4.12935 -2.62526 2.12557 -27.7586 3.88526 -7.93732 -35.7415 18.9112 -28.8598 -5.0687 -10.6107 2.85495 -9.82639 0.364349 -4.23533 27.655 6.04956 14.2853 53.2915 6.95018 -7.20666 3.63737 -8.09433 7.00262 3.92028 0.102739 3.01461 5.50528 16.3858 7.95727 -0.108885 39.0888 -21.2215 -8.29637 -9.39976 -0.702892 -3.4922 20.5683 5.44774 5.71305 -16.9055 -6.67687 1.77942 20.9296 -0.24017 -12.0522 4.30141 0.445485 2.81092 -9.89885 -4.60982 
-23.1456 96.5876 16.527 6.0605 2.51951 138.158 0 0 0 -0.455462 2.32075 -1.53046 0.520436 4.35145 -2.33961 11.8911 2.28925 -2.37204 -4.08311 -2.44437 2.25533 -29.0037 3.91202 -7.61735 -36.8359 19.5273 -25.6053 -5.6848 -10.8139 4.79089 -9.84548 0.306806 -3.55662 27.3203 6.02103 14.3726 51.9816 8.7968 -5.14828 3.92957 -7.9123 8.00448 3.37239 0.102536 3.48077 7.24443 11.4748 9.06691 0.0219995 48.6864 -20.7072 -8.24199 -3.13557 -0.243996 -3.48616 20.8232 5.35489 6.70106 -13.9842 -7.20308 1.16448 21.5893 1.43441 -11.6012 1.31308 0.129155 2.71578 -9.53263 -4.12221 
-20.9306 97.0291 14.4061 6.67602 2.13667 138.324 0 0 0 1.09573 2.74492 -1.55365 0.136936 4.53116 -2.12451 11.1299 2.52749 -2.05495 -3.75161 -2.73292 2.27142 -29.8655 3.92015 -7.3794 -38.6986 19.399 -21.3493 -5.85707 -11.0218 4.65764 -9.74247 0.219317 -2.57388 27.2386 6.03233 14.4479 50.2104 9.53551 -2.4083 3.81953 -6.96033 8.72056 1.77804 0.0567869 3.58177 8.72355 5.79019 8.30401 0.0110796 56.0494 -18.9268 -5.31059 -6.06511 -0.223215 -3.29372 19.6421 5.18451 7.42705 -11.2618 -6.41201 1.54949 20.9813 0.112028 -9.17676 -1.61391 -0.115276 2.2934 -7.97724 -3.00515 
-18.9027 97.5296 12.331 6.57602 2.03407 139.096 0 0 0 1.78523 3.07738 -1.64329 -0.203097 4.49165 -1.91559 11.1577 3.50316 -2.29099 -3.9002 -3.62904 2.13787 -30.1066 3.90644 -7.27042 -40.8603 19.7052 -16.5429 -5.44016 -12.6171 4.79118 -9.65945 0.190836 -2.25828 26.9095 5.93215 14.321 48.9506 9.35422 0.476908 3.54917 -6.31618 9.28621 0.795701 0.0294261 3.99365 8.58746 0.00436223 6.8191 0.0332743 60.0787 -15.7202 0.821036 -13.4484 0.112747 -2.84714 17.6667 4.54225 7.3637 -8.72716 -5.30278 2.04835 19.8254 -1.5127 -6.94725 -4.0079 -0.248629 1.99192 -6.71988 -3.04474 
-16.8933 98.1444 10.2756 5.91147 2.51285 138.952 0 0 0 1.92775 3.83799 -1.03555 -1.21068 4.01337 -0.984757 11.3122 4.08752 -2.72261 -4.06133 -3.91395 1.83296 -29.9974 3.8419 -7.12489 -43.135 20.1295 -11.7528 -4.99947 -13.5645 4.03248 -9.65353 0.183314 -2.17062 26.7504 5.92085 14.3701 47.7628 8.87456 2.58987 3.25028 -6.19338 10.6833 1.3639 0.0519798 4.38092 7.09481 -5.1297 6.04131 -0.00230179 60.2306 -10.5977 4.05992 -17.9143 0.624384 -2.50375 15.7494 4.11976 6.69067 -5.69519 -4.35532 2.25175 17.6452 -2.25163 -6.63903 -5.16134 -0.303291 1.97416 -6.72256 -2.82129 
-14.9354 98.7274 8.11235 5.09757 3.1422 138.189 0 0 0 2.68485 4.68461 -0.219387 -3.24011 3.5972 0.361614 10.9199 4.05927 -2.88857 -3.551 -3.76199 1.43969 -29.8462 3.76903 -6.96732 -44.7983 21.4874 -7.00282 -4.93543 -13.9066 0.910041 -10.3429 0.187413 -2.07108 26.4191 5.89237 14.4562 46.8391 8.58137 4.50695 2.85467 -6.04234 12.8415 1.40678 0.0501887 4.18548 5.16273 -9.63005 5.8632 -0.0909651 57.2034 -3.94099 4.87348 -18.2915 0.783649 -2.29587 14.505 3.87025 5.9066 -2.42218 -3.97592 2.20593 14.863 -1.70307 -9.12845 -4.59016 -0.352501 2.58898 -9.05925 -3.44564 
-13.0044 99.0196 5.79873 4.31513 3.27248 137.403 0 0 0 4.60599 5.03496 0.411159 -6.05444 3.45058 1.71078 10.0117 3.81253 -3.0155 -2.69091 -4.03744 0.819449 -29.7533 3.6957 -6.79004 -46.1589 23.4424 -2.28134 -5.03443 -14.043 -3.24683 -10.682 0.211341 -2.26432 25.6803 5.75438 14.428 46.26 9.16771 6.87476 2.6449 -6.19763 14.8782 1.33625 0.0471924 4.16767 3.51349 -13.8895 5.45909 -0.0371793 51.7845 1.0908 5.89755 -16.0389 0.824739 -2.39137 12.4456 4.68127 5.42135 0.177476 -4.19732 1.9529 12.7563 -0.388716 -11.7171 -4.5307 -0.468599 3.05364 -10.9362 -4.6653 
-11.1075 98.8814 3.41991 3.92285 2.92974 136.346 0 0 0 7.09205 5.49885 1.03634 -8.39155 3.17642 2.9885 8.28532 3.473 -2.83762 -1.53286 -4.51753 0.176238 -30.5154 3.65488 -6.46974 -46.7193 24.3005 1.85929 -4.9149 -13.7204 -6.65864 -10.4265 0.222636 -2.43915 24.8948 5.73167 14.7846 45.3684 9.64218 9.10183 2.58491 -6.57354 16.7337 1.24611 0.0466327 4.26764 2.75065 -17.4484 4.95714 0.0348411 44.8829 1.45017 5.71768 -13.6335 0.69062 -2.19623 10.1857 4.81026 5.33893 1.74928 -4.60036 1.37519 12.8356 0.758851 -11.508 -6.7468 -0.675744 3.08807 -11.1413 -4.13475 
-9.16611 98.4529 0.855216 4.10179 2.56763 135.443 0 0 0 9.91208 6.33234 1.65123 -10.2203 2.73033 4.12931 5.96358 3.34741 -2.64868 -0.39069 -5.03359 -0.620268 -32.2976 3.72743 -6.19827 -46.1048 24.686 4.77815 -4.88256 -14.0191 -8.3004 -10.3959 0.207622 -2.28158 23.9388 5.70622 15.246 44.4957 9.76201 10.7469 2.35494 -6.23347 18.6196 1.00001 0.0386771 4.44463 2.42344 -19.9316 4.47972 0.0240751 37.0927 -1.31163 4.88154 -10.6056 0.45236 -1.76361 8.55281 3.93437 5.42604 3.18746 -5.14266 1.12115 14.3616 1.80315 -12.1705 -9.20092 -0.985228 3.14402 -11.5243 -2.53394 
-7.11011 97.7993 -1.86218 4.54678 2.3479 134.736 0 0 0 12.8391 7.05719 2.00972 -12.3153 2.58919 5.04866 4.40227 3.22945 -2.61085 0.128963 -5.65324 -1.19152 -33.5608 3.69251 -5.80022 -45.505 22.9112 6.46021 -4.62336 -13.9918 -8.13537 -10.2444 0.201489 -2.24382 23.6384 5.81166 15.7611 43.0004 9.87593 12.5124 2.04124 -5.40218 19.8773 1.06037 0.0423924 4.56814 2.13358 -21.1645 4.30554 0.0766514 28.1286 -5.54494 5.52436 -6.58432 0.310579 -1.39791 6.77709 3.28093 5.48544 4.87405 -5.85375 1.171 16.3296 2.93711 -14.2749 -11.581 -1.46024 3.42733 -12.6097 -2.79423 
-4.79416 97.0211 -4.73399 5.30814 2.2151 134.43 0 0 0 15.3652 7.77381 2.18945 -13.7574 2.37848 5.62893 3.10861 3.51168 -2.53159 0.610236 -6.25313 -1.61468 -34.6521 3.63447 -5.40795 -44.964 19.8472 7.81917 -4.36788 -14.4978 -7.2825 -10.7021 0.165277 -1.7839 23.4014 5.85602 16.0532 41.7006 10.046 14.0514 1.93041 -5.0842 20.4151 1.28691 0.0516964 4.59156 1.90459 -20.7549 3.588 -0.676676 17.8873 -7.22349 5.25367 -3.9438 0.18527 -1.26768 4.25724 3.58933 5.93628 7.58156 -6.49468 0.976868 17.2024 3.3205 -15.2187 -14.1262 -1.88594 3.77354 -14.0624 -3.40091 
-2.194 96.0274 -7.72223 6.13297 2.24864 134.274 0 0 0 17.0474 8.33301 2.55156 -14.3063 1.98011 6.12001 2.03657 4.21062 -2.54867 0.868915 -6.80107 -2.01724 -35.5423 3.65193 -5.25464 -45.1419 17.5198 8.81867 -4.25684 -15.3001 -5.92216 -10.2581 0.114341 -1.25352 23.0077 5.8243 16.1919 40.8827 10.1666 14.98 1.56789 -4.15432 20.417 1.82629 0.0706282 4.45528 1.6198 -19.9056 3.03917 -1.64297 9.18348 -6.12339 3.92855 -3.01724 0.102979 -1.10698 2.50606 3.64332 6.40951 10.9981 -7.30444 0.91625 17.4856 3.48602 -17.4203 -16.3312 -2.52934 4.14735 -15.5677 -3.75326 
0.584457 94.9354 -10.7376 6.44628 2.47311 133.906 0 0 0 17.6629 7.84037 3.09259 -14.7533 2.52533 6.69956 1.80045 4.45004 -2.66132 0.886209 -6.71815 -2.21131 -35.9405 3.61996 -5.09498 -45.5408 15.261 9.32401 -3.8432 -14.4217 -4.69686 -10.5452 0.0297755 -0.398198 23.2307 5.93442 16.4172 39.6543 10.5873 15.9569 1.24113 -3.18924 19.6855 2.12455 0.0808898 4.35722 0.927932 -20.0462 3.10247 -2.35343 5.04461 -4.51938 3.11232 -2.83908 0.0770771 -1.07909 1.39353 3.91233 6.48533 14.7033 -8.27434 1.16222 16.7419 3.45208 -21.5622 -17.5562 -3.36644 4.65165 -17.8459 -4.85001 
